<svg xmlns="http://www.w3.org/2000/svg" viewBox="0 0 200 200"><style>tspan { white-space:pre }.shp0 { fill: #000000 } </style><path fill-rule="evenodd" class="shp0" d="M120.05 10C120.57 10 123.47 10.67 126.5 11.5C130.9 12.7 131.9 13.35 131.52 14.75C131.26 15.71 119.31 56.1 104.97 104.5C90.63 152.9 78.81 192.64 78.7 192.8C78.59 192.97 75.8 192.32 72.5 191.36C69.2 190.39 66.39 189.58 66.26 189.55C66.13 189.52 67.6 184.1 69.51 177.5C71.43 170.9 73.08 165.14 73.08 165C73.08 164.86 60.85 165 19 165L19 38L111 38L112.57 32.25C113.44 29.09 115.26 22.79 116.62 18.25C117.98 13.71 119.53 10 120.05 10ZM31.83 101.67L32 152L76.9 152C78.45 148.13 79.17 145.35 79.17 145.07C79.17 144.8 70 145 59 145L39 145C38.97 141.14 42.88 139.63 46.6 137.13C50.41 134.57 51.35 130.67 56.66 123C60.66 117.22 65.3 111.26 66.97 109.75C69.06 107.85 71.08 107 73.5 107C75.42 107 78.01 107.5 79.25 108.12C80.49 108.74 82.93 110.65 84.68 112.37L87.86 115.5C91.75 102.32 95.89 88.38 99.56 76C103.24 63.63 107.44 51 107.3 51C106.41 51 99.17 51 70.17 51C49.91 51 31.97 50.96 32 51C32.02 51.03 31.74 74.53 31.83 101.67ZM137.98 38L179 38L179 165C157.55 165 101.83 165 100.67 165C100.57 165 101.99 161.3 104.89 152L166 152L166 51C158.93 51 137.89 51 135.01 51C134.99 51 135.74 46.91 136.62 43.75L137.98 38ZM128.04 79C129.13 79 131.97 81.28 134.56 84.25C137.08 87.14 141.65 94.45 144.71 100.5C147.78 106.55 150.27 112.97 151.97 117.29C154.29 123.18 159.02 139.56 158.98 145L132.98 145C118.68 145 106.99 144.66 107 144.25C107.01 143.84 111.09 129.78 116.06 113C121.03 96.22 125.32 81.71 125.6 80.75C125.87 79.79 126.96 79 128.04 79ZM59 91C51.81 91 46 85.19 46 78C46 70.81 51.81 65 59 65C66.19 65 72 70.81 72 78C72 85.19 66.19 91 59 91Z" /></svg>
