<svg xmlns="http://www.w3.org/2000/svg" viewBox="0 0 503 662" width="503" height="662"><style>tspan { white-space:pre }.shp0 { fill: #000000 } </style><path class="shp0" d="M227.5 1.05C223.1 1.55 215.68 2.69 211 3.58C206.32 4.47 198.68 6.54 194 8.18C189.32 9.83 181.9 13.06 177.5 15.37C173.1 17.67 166.8 21.61 163.5 24.12C160.2 26.62 154.8 31.68 151.5 35.37C148.2 39.05 143.13 45.99 140.23 50.78C137.34 55.58 133.57 63.1 131.86 67.5C130.15 71.9 127.28 81.35 125.49 88.5C123.7 95.65 121.51 107.35 120.62 114.5C119.74 121.65 118.73 136.28 118.38 147C117.99 159.06 118.18 171.27 118.89 179C119.53 185.88 121.16 196.45 122.53 202.5C123.9 208.55 126.39 217.78 128.07 223C129.74 228.22 133.39 237.22 136.18 243C138.96 248.78 143.72 257.32 146.75 262C149.77 266.68 155.45 274.29 159.37 278.91C163.29 283.54 170.3 290.52 174.95 294.41C179.59 298.31 188.14 304.33 193.95 307.78C200.57 311.72 208.41 315.36 215 317.55C220.78 319.47 229.55 321.7 234.5 322.51C239.45 323.33 247.1 324 251.5 324.01C255.9 324.01 263.55 323.33 268.5 322.48C273.45 321.64 281.99 319.5 287.47 317.72C292.96 315.95 301.38 312.25 306.19 309.5C310.99 306.75 317.73 302.48 321.17 300C324.6 297.52 331.48 291.42 336.45 286.43C341.43 281.45 348.43 273.23 352 268.17C355.57 263.12 360.41 255.5 362.74 251.24C365.07 246.98 368.41 240.13 370.14 236C371.88 231.88 374.99 222.65 377.05 215.5C379.1 208.35 381.61 198 382.62 192.5C384.11 184.32 384.43 177.58 384.37 155.5C384.32 136.17 383.82 124.95 382.61 116C381.69 109.13 379.77 98.33 378.35 92C376.94 85.67 374.44 76.67 372.8 72C371.16 67.33 367.49 59.27 364.66 54.09C361.82 48.92 356.56 41.27 352.97 37.09C349.37 32.92 343.3 27.13 339.47 24.24C335.63 21.35 329.13 17.24 325 15.12C320.88 13 314.35 10.11 310.5 8.69C306.65 7.28 301.48 5.59 299 4.95C296.52 4.31 290.45 3.13 285.5 2.34C280.55 1.54 267.27 0.72 256 0.51C244.72 0.3 231.9 0.54 227.5 1.05ZM173.5 336.68C172.4 336.93 161.38 339.37 149 342.1C135.64 345.05 118.98 349.57 108 353.23C97.14 356.85 84.55 361.9 77.5 365.47C70.9 368.8 61.67 374.3 57 377.69C52.33 381.07 45.76 386.69 42.42 390.17C39.08 393.65 34.35 399.2 31.92 402.51C29.49 405.81 25.62 412.11 23.31 416.51C21.01 420.9 17.94 427.65 16.48 431.5C15.03 435.35 12.35 444.57 10.53 452C8.7 459.43 6.47 470.45 5.57 476.5C4.67 482.55 3.29 496.73 2.52 508C1.74 519.27 0.81 541.77 0.45 558L-0.21 587.5C5.41 595.25 10.3 600.38 14.27 603.89C18.25 607.4 25.32 612.77 30 615.81C34.67 618.85 44.35 624.18 51.5 627.66C58.65 631.14 72.6 636.66 82.5 639.92C92.56 643.23 108.88 647.61 119.5 649.85C129.95 652.06 144.8 654.77 152.5 655.87C160.2 656.98 172.35 658.37 179.5 658.96C186.65 659.55 200.6 660.47 210.5 661C220.4 661.53 238.63 661.97 251 661.97C263.38 661.98 282.27 661.54 293 660.99C303.73 660.45 319.7 659.31 328.5 658.47C337.3 657.63 351.25 655.81 359.5 654.42C367.75 653.04 381.48 650.34 390 648.43C398.52 646.52 412.93 642.48 422 639.46C431.07 636.44 444.35 631.13 451.5 627.65C458.65 624.18 468.32 618.85 473 615.81C477.68 612.77 484.65 607.48 488.5 604.04C492.35 600.61 497.25 595.49 499.38 592.65L503.26 587.5C502.22 542.55 501.47 522.3 500.92 513.5C500.37 504.7 499.25 491.65 498.43 484.5C497.61 477.35 495.78 466.32 494.36 460C492.95 453.68 490.69 444.68 489.36 440C488.02 435.32 484.52 426.55 481.59 420.5C478.65 414.45 473.55 405.9 470.25 401.5C466.95 397.1 461.38 390.8 457.88 387.49C454.37 384.19 447 378.49 441.5 374.84C436 371.19 426.77 365.95 421 363.2C415.23 360.46 402.85 355.71 393.5 352.66C384.15 349.6 367.5 345.09 356.5 342.63C345.5 340.17 333.91 337.67 330.75 337.08L325 336C317.64 342.65 311.9 346.8 307.5 349.51C303.1 352.22 295.68 355.71 291 357.25C286.32 358.79 278.9 360.82 274.5 361.76C268.97 362.94 261.86 363.47 251.5 363.47C240.85 363.47 234.04 362.95 228 361.66C223.32 360.67 216.13 358.73 212 357.35C207.88 355.97 200.94 352.74 196.59 350.17C192.24 347.6 186.28 343.36 183.34 340.75C180.4 338.14 177.44 336.05 176.75 336.12C176.06 336.18 174.6 336.44 173.5 336.68Z" /></svg>